<?xml version="1.0" encoding="UTF-8"?>
<svg version="1.1" xmlns="http://www.w3.org/2000/svg" width="1024" height="1536">
<path d="M0 0 C337.92 0 675.84 0 1024 0 C1024 506.88 1024 1013.76 1024 1536 C686.08 1536 348.16 1536 0 1536 C0 1029.12 0 522.24 0 0 Z " fill="#F9FCFC" transform="translate(0,0)"/>
<path d="M0 0 C1.88917093 -0.00362219 3.77833868 -0.00943573 5.66749704 -0.01722199 C10.80664009 -0.03214454 15.94527724 -0.01627201 21.08438015 0.00508463 C26.64680555 0.02268099 32.2091844 0.01117626 37.7716217 0.00341797 C48.64727529 -0.00721892 59.52273419 0.00863752 70.39835812 0.03355623 C83.07749084 0.06157371 95.75658485 0.06282952 108.43574338 0.06299924 C131.748021 0.06422071 155.06019239 0.0914027 178.37242681 0.13116396 C199.62291734 0.16729402 220.87334981 0.18642775 242.12387085 0.18919373 C243.13770145 0.18933098 243.13770145 0.18933098 244.17201348 0.18947101 C246.21685665 0.18974745 248.26169982 0.19001894 250.30654299 0.19029003 C253.02299921 0.1906531 255.73945542 0.1910265 258.45591164 0.1914072 C259.46146302 0.19154254 259.46146302 0.19154254 260.48732856 0.19168062 C282.10297253 0.19475728 303.71860553 0.21335426 325.33423907 0.23390045 C332.90929952 0.24090871 340.48435762 0.24569963 348.0594206 0.2488618 C360.07577219 0.25392209 372.09207894 0.26541454 384.10840751 0.29016209 C389.59494711 0.30134283 395.081443 0.30950083 400.56799507 0.30902863 C405.5988406 0.30871825 410.62958298 0.31775484 415.66040151 0.33399665 C417.47170599 0.33828235 419.28302206 0.33930518 421.09432955 0.33657057 C449.89953382 0.29924738 449.89953382 0.29924738 461.59359741 5.61473083 C463.20234741 6.23348083 463.20234741 6.23348083 464.84359741 6.86473083 C486.57595365 16.44672427 503.38213937 33.489426 511.96859741 55.61473083 C516.6625793 67.99215792 516.88619902 80.78292708 516.8475647 93.85229492 C516.84987323 95.56675582 516.85305238 97.28121573 516.85701919 98.9956736 C516.86532177 103.6748151 516.86126267 108.35387439 516.85504675 113.03301609 C516.85050463 118.09169294 516.8575147 123.15035606 516.86300659 128.20903015 C516.8718833 138.10604917 516.86998632 148.00303779 516.86418131 157.90005798 C516.8596583 165.9455097 516.85905468 173.99095293 516.86122894 182.03640556 C516.86153541 183.18295443 516.86184188 184.32950331 516.86215763 185.51079608 C516.8627971 187.84022237 516.86344553 190.16964865 516.86410281 192.49907493 C516.86980099 214.32355704 516.86325611 236.14802233 516.85250208 257.97250169 C516.84356584 276.68715615 516.84512021 295.4017858 516.8543396 314.11643982 C516.86504921 335.86619965 516.86925298 357.61594476 516.86311507 379.36570686 C516.86247799 381.6860952 516.86184925 384.00648353 516.86122894 386.32687187 C516.86092039 387.46845425 516.86061184 388.61003662 516.86029394 389.7862124 C516.85856916 397.8198154 516.86147739 405.85340903 516.86618805 413.88701057 C516.87180449 423.68030203 516.87026431 433.47356143 516.85962656 443.26684923 C516.85438034 448.26072624 516.85229524 453.25454986 516.85892487 458.24842644 C516.86490807 462.82466881 516.86157023 467.40080858 516.85096976 471.97704171 C516.84874578 473.62759493 516.84984936 475.27815692 516.85472134 476.92870445 C516.87944705 486.00551525 516.46632954 494.69259349 514.59359741 503.61473083 C514.41265038 504.53368985 514.23170334 505.45264887 514.04527307 506.39945513 C510.16287315 525.01407858 495.65224553 541.96050316 480.63265991 552.73973083 C463.33171568 564.01738337 446.16242545 566.91867514 425.81428528 566.8888855 C423.89561141 566.89334172 421.97693939 566.89865702 420.05827004 566.90475422 C414.80053631 566.91889856 409.54286181 566.92059819 404.28511178 566.92015731 C398.60868704 566.92180867 392.93228646 566.93488111 387.25587463 566.9463501 C374.85076263 566.96917435 362.44566775 566.9771179 350.0405376 566.98217654 C342.29034404 566.98543647 334.54015543 566.99196072 326.78996468 566.99917793 C305.31881884 567.01874028 283.84767978 567.035228 262.37652493 567.03805447 C261.69030092 567.03814853 261.00407691 567.03824259 260.29705824 567.0383395 C257.51629926 567.03871796 254.73554029 567.03908196 251.95478131 567.03944248 C249.86197457 567.03971419 247.76916783 567.03999087 245.67636108 567.04026794 C244.98481616 567.04035597 244.29327123 567.04044399 243.58077039 567.04053468 C221.86161733 567.04343886 200.14255335 567.06552637 178.4234314 567.10179138 C154.00086144 567.14256974 129.57836309 567.16619385 105.15575558 567.16651398 C92.23267424 567.16709798 79.30970757 567.1755533 66.38665581 567.20451164 C55.38201375 567.22905834 44.3775282 567.23628609 33.37286615 567.22126412 C27.76261284 567.21410888 22.15266838 567.21489316 16.54244995 567.23767471 C11.39698369 567.25836807 6.25206169 567.25556798 1.10660065 567.23479987 C-0.74534633 567.23132474 -2.59733342 567.23613012 -4.44922788 567.25050431 C-27.64732515 567.41882268 -47.14981918 560.35186665 -64.40640259 544.61473083 C-65.57429321 543.58605896 -65.57429321 543.58605896 -66.76577759 542.53660583 C-73.34480775 536.41130189 -77.87027314 529.29688555 -82.40640259 521.61473083 C-83.05609009 520.51644958 -83.05609009 520.51644958 -83.71890259 519.39598083 C-89.46343998 508.80449002 -91.52149202 497.01857733 -91.54341698 485.10292149 C-91.54739472 484.03050708 -91.54739472 484.03050708 -91.55145282 482.93642774 C-91.55908268 480.55237218 -91.55970254 478.16836867 -91.56030273 475.78430176 C-91.56432151 474.05297114 -91.56876042 472.32164146 -91.57358229 470.5903129 C-91.58550705 465.84114622 -91.59118668 461.09198968 -91.59576344 456.34281099 C-91.60173502 451.2171458 -91.61334082 446.09149263 -91.62405396 440.96583557 C-91.64854056 428.5922701 -91.66319867 416.21870066 -91.67611402 403.84511843 C-91.67982838 400.34840703 -91.6838014 396.85169601 -91.68786669 393.354985 C-91.71310326 371.62457249 -91.73514865 349.89415931 -91.74759483 328.16373539 C-91.75052435 323.13397278 -91.75348604 318.10421019 -91.75650024 313.07444763 C-91.75724629 311.8243821 -91.75799235 310.57431657 -91.758761 309.28637027 C-91.77141121 289.04192637 -91.8046324 268.79757036 -91.84630208 248.55316753 C-91.88876428 227.75269334 -91.91229472 206.9522641 -91.9175154 186.15174669 C-91.92092439 174.47947214 -91.93261952 162.80733502 -91.96561813 151.13510323 C-91.99367852 141.1935813 -92.00459161 131.25222501 -91.99342267 121.31066657 C-91.98825162 116.24318071 -91.9910216 111.17604139 -92.01588821 106.10860634 C-92.03851315 101.45896293 -92.03753899 96.80991235 -92.01868434 92.16025763 C-92.01590281 90.48859552 -92.02137864 88.81689204 -92.03649728 87.14529599 C-92.21697648 65.86978143 -85.6321821 46.72489532 -71.40640259 30.61473083 C-70.69484009 29.7600824 -69.98327759 28.90543396 -69.25015259 28.02488708 C-64.21161041 22.12588964 -59.03595403 17.6326408 -52.40640259 13.61473083 C-51.30554321 12.94441833 -50.20468384 12.27410583 -49.07046509 11.58348083 C-33.46185556 2.47752046 -17.85981382 -0.14203177 0 0 Z " fill="#3B3B3A" transform="translate(300.4064025878906,456.38526916503906)"/>
<path d="M0 0 C146.37915544 0 146.37915544 0 165.78125 10.234375 C166.9424939 10.84261108 166.9424939 10.84261108 168.12719727 11.46313477 C168.91022217 11.88780029 169.69324707 12.31246582 170.5 12.75 C171.32878662 13.194646 172.15757324 13.63929199 173.01147461 14.09741211 C183.14047147 19.60829504 191.62444513 26.08176871 200 34 C200.83660156 34.76054688 201.67320312 35.52109375 202.53515625 36.3046875 C216.26085741 49.24545675 226.01633905 67.15522096 228 86 C228.24665405 87.55267578 228.24665405 87.55267578 228.49829102 89.13671875 C229.03884697 93.29913112 229.22318212 97.3676089 229.31640625 101.55859375 C229.33718735 102.34774673 229.35796844 103.13689972 229.37937927 103.94996643 C229.44423305 106.44573109 229.50345805 108.94159178 229.5625 111.4375 C229.60574642 113.13998348 229.64936256 114.84245762 229.69335938 116.54492188 C229.79984763 120.69651873 229.90129147 124.84821118 230 129 C230.4125 128.57589844 230.825 128.15179687 231.25 127.71484375 C231.8275 127.12832031 232.405 126.54179688 233 125.9375 C233.556875 125.36902344 234.11375 124.80054688 234.6875 124.21484375 C236.53854626 122.44196668 238.41349509 120.79275345 240.36450195 119.13549805 C246.24857301 114.01491242 251.68033881 108.43010329 257.17516136 102.90000343 C259.20365386 100.85861935 261.23536592 98.82048786 263.26789856 96.78312683 C267.57726447 92.46240169 271.8826667 88.13774047 276.1875 83.8125 C281.18977627 78.78657362 286.1936905 73.76230071 291.20183754 68.74222374 C293.19857023 66.73903294 295.19225638 64.73284397 297.18583679 62.72651672 C298.41304925 61.49567093 299.64040278 60.26496577 300.86791992 59.03442383 C301.41712097 58.48005646 301.96632202 57.92568909 302.53216553 57.35452271 C305.54269769 54.34358003 308.64062913 51.62782077 312 49 C313.117265 47.78023362 314.20254906 46.53021781 315.25 45.25 C317.82089493 42.23199291 320.50013981 39.59171594 323.5 37 C327.10662807 33.88157877 330.17409295 30.58421533 333.2421875 26.9453125 C335.65170063 24.27878464 338.3309949 22.01549706 341.10546875 19.73828125 C343.14413114 18.01652305 343.14413114 18.01652305 344.64825439 15.42683411 C347 13 347 13 350.40423584 12.39872742 C351.7769474 12.38428718 353.15011869 12.39741153 354.52246094 12.43237305 C355.6498745 12.43127785 355.6498745 12.43127785 356.80006409 12.43016052 C359.27890762 12.43363789 361.75586072 12.47250246 364.234375 12.51171875 C365.95500665 12.52104643 367.67565159 12.52816276 369.39630127 12.53315735 C373.92088608 12.55223088 378.44466593 12.60133422 382.96893311 12.65667725 C387.58725088 12.70786238 392.20569897 12.73066979 396.82421875 12.75585938 C405.88316581 12.80945303 414.94151592 12.89476979 424 13 C422.7082122 15.84015307 421.35216917 17.89698388 419.14599609 20.09692383 C418.57134613 20.67465042 417.99669617 21.25237701 417.40463257 21.84761047 C416.7838382 22.46121933 416.16304382 23.07482819 415.5234375 23.70703125 C414.5573204 24.67246101 414.5573204 24.67246101 413.57168579 25.65739441 C412.20721862 27.01884298 410.84032432 28.37786275 409.47119141 29.73461914 C407.39826306 31.78944015 405.33330021 33.85199987 403.26953125 35.91601562 C401.93796785 37.24265725 400.60595051 38.56884344 399.2734375 39.89453125 C398.66478851 40.50206741 398.05613953 41.10960358 397.42904663 41.73554993 C393.69260215 45.4318336 389.83010617 48.92631552 385.85610962 52.36503601 C383.36265068 54.56141253 381.02029576 56.88455236 378.6875 59.25 C378.00046997 59.94270996 378.00046997 59.94270996 377.29956055 60.64941406 C375.86383825 62.09712722 374.43147568 63.54808857 373 65 C367.46099894 70.61807586 361.92538093 76.16483454 355.92578125 81.296875 C352.27958572 84.52150229 348.90920265 88.02869894 345.5 91.5 C340.78658234 96.29927226 336.01956419 100.91513651 330.91992188 105.30273438 C327.80202928 108.05904024 324.90990277 111.02751868 322 114 C317.77183495 118.27746004 313.51579364 122.40971307 308.921875 126.296875 C305.6138665 129.22836221 302.56749172 132.4246386 299.46484375 135.5703125 C296.65534584 138.33973833 293.72447248 140.90951974 290.69140625 143.4296875 C288.85496258 145.13465368 287.44520621 146.95814902 286 149 C286.60585938 149.54527344 287.21171875 150.09054687 287.8359375 150.65234375 C289.61087133 152.2497842 291.38559374 153.84745958 293.16015625 155.4453125 C294.91638805 157.02519641 296.67393532 158.60362104 298.43359375 160.1796875 C303.77760864 164.97087327 309.06095098 169.82290807 314.32568359 174.70068359 C317.16151565 177.32230113 320.01332523 179.91406867 322.9375 182.4375 C326.71214668 185.69924353 330.35288772 189.09739754 334 192.5 C338.26002122 196.47412125 342.54242815 200.40035389 346.95703125 204.203125 C349.09210059 206.08100625 351.17919525 208.00675815 353.26416016 209.93994141 C357.49060103 213.85716302 361.7403716 217.65586008 366.25 221.25 C371.8192148 225.72800435 376.99183379 230.58383566 382.16699219 235.50878906 C386.08717612 239.23543242 390.07708487 242.85256982 394.1628418 246.39697266 C396.58714721 248.51232008 398.94925205 250.69184404 401.3125 252.875 C405.03274581 256.27533563 408.82450753 259.52664393 412.75 262.6875 C416.5114793 265.7233606 419.97714085 268.85789908 423.3359375 272.328125 C425.71689367 274.72025936 428.26301654 276.90049479 430.81640625 279.10546875 C433.31686313 281.27491703 435.78598339 283.4767597 438.25 285.6875 C439.05953125 286.41324219 439.8690625 287.13898438 440.703125 287.88671875 C441.46109375 288.58410156 442.2190625 289.28148437 443 290 C443.77859375 290.66644531 444.5571875 291.33289063 445.359375 292.01953125 C445.90078125 292.67308594 446.4421875 293.32664062 447 294 C446.60253906 296.1237793 446.60253906 296.1237793 446 298 C435.9512023 298.16243128 425.90271857 298.28669061 415.8528738 298.3626852 C411.18586688 298.39916572 406.51976027 298.44861916 401.85327148 298.52807617 C397.34687055 298.60432419 392.8413336 298.64602925 388.33433723 298.6641407 C386.61788396 298.67704144 384.90147622 298.70223511 383.18539238 298.7401104 C369.71889348 299.02541449 369.71889348 299.02541449 365.43901062 296.472229 C363.69690934 294.73755639 362.36987607 293.0312657 361 291 C359.3374386 289.59494811 357.65147957 288.21684771 355.9375 286.875 C350.10711661 282.18499463 344.67785214 277.12483596 339.22265625 272.0078125 C336.18205669 269.1577443 333.07651576 266.39511189 329.921875 263.671875 C327.58894926 261.64241927 325.29488755 259.572353 323 257.5 C320.04130249 254.82951656 317.07073528 252.17701942 314.0625 249.5625 C310.83440488 246.75177475 307.66261557 243.884201 304.5 241 C299.01542578 236.00311022 293.46731169 231.09686934 287.81640625 226.2890625 C281.48296535 220.89528034 275.22851615 215.44442659 269.12036133 209.79614258 C265.81207547 206.73699306 262.45325904 203.74969636 259.046875 200.80078125 C256.55925274 198.61224335 254.12646548 196.36760809 251.6875 194.125 C247.11748243 189.95485896 242.42092858 185.98843409 237.60546875 182.10546875 C234.71117574 179.76660229 231.85664658 177.38467675 229 175 C229.02356567 176.51013672 229.02356567 176.51013672 229.04760742 178.05078125 C229.10284552 181.86775368 229.13668273 185.68469274 229.16479492 189.50195312 C229.17967183 191.13873274 229.1999798 192.77547407 229.22631836 194.41210938 C229.45802491 209.2049825 228.40269267 223.19349299 222.25 236.875 C221.89784424 237.6781665 221.54568848 238.48133301 221.18286133 239.30883789 C212.53248067 258.48757837 196.41983016 273.22558985 178.67089844 283.98339844 C177.19874227 284.87908199 175.74253318 285.80086504 174.2890625 286.7265625 C166.12647765 291.62411341 157.17608348 293.78996842 148 296 C147.27200195 296.18111328 146.54400391 296.36222656 145.79394531 296.54882812 C98.51017711 307.80390163 48.6048497 299 0 299 C0 200.33 0 101.66 0 0 Z " fill="#FDFCFC" transform="translate(302,578)"/>
<path d="M0 0 C77.75819672 0 77.75819672 0 97 15 C98.17949219 15.91265625 98.17949219 15.91265625 99.3828125 16.84375 C110.31628084 25.88702551 116.8448413 39.0084601 119 53 C119.1453226 56.26810886 119.13656613 59.53306283 119.12939453 62.80395508 C119.13202301 64.27807106 119.13202301 64.27807106 119.13470459 65.78196716 C119.13910241 69.02783987 119.13619168 72.27365799 119.1328125 75.51953125 C119.1334863 77.78008535 119.13445695 80.04063938 119.13571167 82.30119324 C119.13718597 87.03975107 119.13504324 91.77829006 119.13037109 96.5168457 C119.12468377 102.57943384 119.1279482 108.6419776 119.13394356 114.70456409 C119.13756471 119.37408276 119.13640326 124.04359098 119.13381577 128.71310997 C119.13315029 130.94774061 119.13396162 133.18237221 119.13629532 135.41700172 C119.13884626 138.54731361 119.13494645 141.67755469 119.12939453 144.80786133 C119.13141876 145.72501923 119.13344299 146.64217712 119.13552856 147.58712769 C119.08299609 163.64620998 113.70801771 180.16215017 102.359375 191.97265625 C74.07599729 216.27575729 34.71920084 210 0 210 C0 140.7 0 71.4 0 0 Z " fill="#3C3B3B" transform="translate(359,623)"/>
</svg>
